<svg width="24" height="25" viewBox="0 0 24 25" fill="none" xmlns="http://www.w3.org/2000/svg">
<g clip-path="url(#clip0_10_479)">
<path d="M8 2.8457V5.8457M16 2.8457V5.8457M3.5 9.9357H20.5M22 19.8457C22 20.5957 21.79 21.3057 21.42 21.9057C21.0675 22.4982 20.5667 22.9887 19.967 23.3288C19.3674 23.669 18.6894 23.8471 18 23.8457C16.99 23.8457 16.07 23.4757 15.37 22.8457C15.06 22.5857 14.79 22.2657 14.58 21.9057C14.1993 21.2861 13.9985 20.5729 14 19.8457C14 17.6357 15.79 15.8457 18 15.8457C19.2 15.8457 20.27 16.3757 21 17.2057C21.6431 17.9349 21.9986 18.8734 22 19.8457Z" stroke="white" stroke-width="1.5" stroke-miterlimit="10" stroke-linecap="round" stroke-linejoin="round"/>
<path d="M16.44 19.8457L17.43 20.8357L19.56 18.8657" stroke="white" stroke-width="1.5" stroke-linecap="round" stroke-linejoin="round"/>
<path d="M21 9.3457V17.2057C20.27 16.3757 19.2 15.8457 18 15.8457C15.79 15.8457 14 17.6357 14 19.8457C14 20.5957 14.21 21.3057 14.58 21.9057C14.79 22.2657 15.06 22.5857 15.37 22.8457H8C4.5 22.8457 3 20.8457 3 17.8457V9.3457C3 6.3457 4.5 4.3457 8 4.3457H16C19.5 4.3457 21 6.3457 21 9.3457Z" stroke="white" stroke-width="1.5" stroke-miterlimit="10" stroke-linecap="round" stroke-linejoin="round"/>
<path d="M11.995 14.5457H12.005M8.29401 14.5457H8.30401M8.29401 17.5457H8.30401" stroke="white" stroke-width="2" stroke-linecap="round" stroke-linejoin="round"/>
</g>
<defs>
<clipPath id="clip0_10_479">
<rect width="24" height="24" fill="white" transform="translate(0 0.845703)"/>
</clipPath>
</defs>
</svg>
