<svg width="24" height="25" viewBox="0 0 24 25" fill="none" xmlns="http://www.w3.org/2000/svg">
<path d="M12 12.8457C13.3261 12.8457 14.5979 12.3189 15.5355 11.3812C16.4732 10.4436 17 9.17179 17 7.8457C17 6.51962 16.4732 5.24785 15.5355 4.31017C14.5979 3.37249 13.3261 2.8457 12 2.8457C10.6739 2.8457 9.40215 3.37249 8.46447 4.31017C7.52678 5.24785 7 6.51962 7 7.8457C7 9.17179 7.52678 10.4436 8.46447 11.3812C9.40215 12.3189 10.6739 12.8457 12 12.8457Z" stroke="white" stroke-width="1.5" stroke-linecap="round" stroke-linejoin="round"/>
<path d="M19.21 16.5857L15.67 20.1257C15.53 20.2657 15.4 20.5257 15.37 20.7157L15.18 22.0657C15.11 22.5557 15.45 22.8957 15.94 22.8257L17.29 22.6357C17.48 22.6057 17.75 22.4757 17.88 22.3357L21.42 18.7957C22.03 18.1857 22.32 17.4757 21.42 16.5757C20.53 15.6857 19.82 15.9757 19.21 16.5857Z" stroke="white" stroke-width="1.5" stroke-miterlimit="10" stroke-linecap="round" stroke-linejoin="round"/>
<path d="M18.7 17.0957C19 18.1757 19.84 19.0157 20.92 19.3157" stroke="white" stroke-width="1.5" stroke-miterlimit="10" stroke-linecap="round" stroke-linejoin="round"/>
<path d="M3.41 22.8457C3.41 18.9757 7.26 15.8457 12 15.8457C13.04 15.8457 14.04 15.9957 14.97 16.2757" stroke="white" stroke-width="1.5" stroke-linecap="round" stroke-linejoin="round"/>
</svg>
