<svg width="24" height="25" viewBox="0 0 24 25" fill="none" xmlns="http://www.w3.org/2000/svg">
<path d="M9.31 15.5457L10.81 17.0457L14.81 13.0457" stroke="white" stroke-width="1.5" stroke-linecap="round" stroke-linejoin="round"/>
<path d="M10 6.8457H14C16 6.8457 16 5.8457 16 4.8457C16 2.8457 15 2.8457 14 2.8457H10C9 2.8457 8 2.8457 8 4.8457C8 6.8457 9 6.8457 10 6.8457Z" stroke="white" stroke-width="1.5" stroke-miterlimit="10" stroke-linecap="round" stroke-linejoin="round"/>
<path d="M16 4.86572C19.33 5.04572 21 6.27572 21 10.8457V16.8457C21 20.8457 20 22.8457 15 22.8457H9C4 22.8457 3 20.8457 3 16.8457V10.8457C3 6.28572 4.67 5.04572 8 4.86572" stroke="white" stroke-width="1.5" stroke-miterlimit="10" stroke-linecap="round" stroke-linejoin="round"/>
</svg>
